<?xml version="1.0" standalone="no"?>
<!DOCTYPE svg PUBLIC "-//W3C//DTD SVG 20010904//EN"
 "http://www.w3.org/TR/2001/REC-SVG-20010904/DTD/svg10.dtd">
<svg version="1.0" xmlns="http://www.w3.org/2000/svg"
 width="2233.000000pt" height="705.000000pt" viewBox="0 0 2233.000000 705.000000"
 preserveAspectRatio="xMidYMid meet">

<g transform="translate(0.000000,705.000000) scale(0.100000,-0.100000)"
fill="#000000" stroke="none">
<path d="M0 3525 l0 -3525 11165 0 11165 0 0 3525 0 3525 -11165 0 -11165 0 0
-3525z m6027 1597 c47 -25 82 -63 112 -124 34 -72 44 -149 38 -318 -9 -261
-65 -530 -231 -1118 -47 -167 -86 -306 -86 -310 0 -4 16 19 35 51 237 393 550
727 789 842 223 107 397 80 437 -69 31 -112 -13 -273 -206 -771 -185 -479
-217 -598 -217 -829 0 -155 31 -255 106 -345 45 -54 49 -108 11 -146 -50 -51
-121 -18 -165 78 -79 170 -88 364 -29 651 21 99 70 256 183 581 82 237 136
492 136 636 0 62 -28 132 -58 148 -40 21 -102 13 -176 -24 -254 -126 -558
-488 -796 -949 -130 -250 -167 -349 -195 -521 -14 -90 -31 -127 -65 -145 -16
-8 -24 -6 -41 11 -20 20 -21 29 -17 123 3 56 18 155 33 221 24 108 59 228 242
830 230 759 283 1248 146 1349 -101 74 -320 -22 -536 -236 -147 -146 -279
-321 -450 -600 -493 -799 -798 -1674 -799 -2293 0 -208 24 -297 102 -371 45
-43 51 -73 18 -104 -26 -24 -68 -26 -109 -4 -38 19 -74 94 -88 184 -32 198 9
711 85 1074 203 961 719 1928 1249 2338 95 74 262 162 336 178 67 14 159 6
206 -18z m9398 -27 c46 -45 37 -86 -71 -310 -207 -431 -338 -722 -474 -1051
-69 -166 -210 -536 -210 -550 0 -18 232 42 362 95 238 95 520 268 768 469 135
110 547 523 672 672 201 242 310 405 347 520 30 90 41 110 73 126 105 55 176
-52 112 -171 -121 -229 -778 -920 -1187 -1251 -126 -101 -357 -251 -504 -327
-135 -69 -359 -163 -448 -187 -45 -13 -47 -15 -25 -21 14 -4 61 -7 106 -8 114
-1 376 -27 524 -52 417 -69 757 -210 914 -379 55 -61 108 -156 120 -219 14
-75 -39 -171 -95 -171 -35 0 -41 9 -72 110 -31 101 -69 164 -145 243 -172 178
-465 300 -842 351 -136 19 -422 36 -607 36 l-132 0 -9 -32 c-5 -18 -26 -88
-46 -156 -43 -143 -100 -393 -116 -511 -6 -46 -11 -143 -11 -215 0 -147 22
-258 65 -330 55 -91 60 -105 50 -134 -23 -64 -111 -60 -166 9 -109 135 -86
510 67 1138 30 122 55 225 55 228 0 2 -26 1 -57 -2 -83 -9 -220 9 -252 33 -73
54 2 191 99 178 19 -2 60 -13 90 -24 30 -11 80 -23 110 -27 l56 -7 48 164 c68
225 182 562 277 816 143 381 338 836 386 900 53 71 125 91 168 47z m-5156
-300 c114 -59 47 -344 -165 -697 -118 -198 -359 -548 -461 -672 -38 -45 -67
-110 -122 -271 -167 -481 -201 -846 -90 -940 108 -90 316 60 584 420 162 218
413 620 448 720 16 43 31 65 56 82 43 29 103 31 131 3 25 -25 25 -23 -2 -123
-59 -221 -9 -339 141 -338 143 0 402 131 553 278 45 45 63 73 94 146 42 101
112 186 155 188 48 2 64 -3 87 -27 16 -19 20 -32 16 -52 -3 -15 -50 -139 -104
-277 -54 -137 -107 -280 -118 -316 -25 -81 -37 -159 -26 -159 5 0 42 57 83
128 200 346 366 542 461 542 12 0 35 -13 51 -29 37 -38 38 -89 4 -226 -50
-198 -43 -265 30 -299 119 -57 320 57 598 335 111 112 154 149 173 149 33 0
41 -26 19 -66 -23 -44 -222 -246 -312 -318 -99 -79 -224 -152 -302 -177 -81
-26 -200 -29 -252 -7 -138 59 -185 226 -123 432 4 11 2 16 -4 12 -17 -10 -144
-203 -256 -387 -107 -179 -134 -209 -181 -209 -67 0 -104 65 -112 194 -5 72 8
218 24 284 5 19 -6 14 -73 -34 -263 -190 -578 -248 -717 -133 -39 33 -97 122
-97 151 0 43 -24 15 -120 -139 -256 -412 -521 -697 -746 -800 -47 -21 -67 -25
-124 -21 -58 3 -75 8 -107 34 -128 101 -140 347 -40 789 14 61 29 119 33 130
4 11 -51 -37 -123 -106 -191 -186 -307 -267 -449 -315 -166 -55 -311 -5 -355
123 -31 89 -3 256 60 354 l29 46 -48 6 c-27 3 -68 16 -91 27 l-42 22 -41 -40
c-150 -144 -354 -268 -549 -334 -75 -25 -113 -32 -207 -35 -102 -5 -122 -3
-175 17 -74 28 -127 80 -145 144 -38 138 36 339 177 482 81 81 155 118 237
118 99 -1 156 -42 156 -116 0 -80 -115 -155 -255 -165 l-74 -6 -15 -36 c-23
-60 -39 -157 -32 -203 20 -134 140 -181 314 -122 132 44 328 163 475 289 71
61 78 69 72 95 -10 46 13 111 55 152 33 33 44 38 84 38 33 0 52 -6 66 -20 28
-28 25 -48 -14 -84 -45 -41 -38 -53 66 -101 192 -88 205 -133 98 -349 -56
-112 -68 -157 -50 -191 26 -49 111 -59 205 -24 128 48 329 219 540 459 l92
105 48 155 c174 562 400 1055 566 1235 77 83 171 115 238 80z m469 -1027 c30
-30 -11 -173 -57 -197 -28 -15 -74 -14 -96 3 -26 19 -25 83 2 128 36 62 119
98 151 66z m6000 0 c30 -30 -11 -173 -57 -197 -28 -15 -74 -14 -96 3 -26 19
-25 83 2 128 36 62 119 98 151 66z m952 -205 c14 -18 18 -34 14 -52 -4 -14
-50 -138 -104 -276 -105 -266 -134 -353 -145 -429 -6 -39 -5 -48 6 -44 8 2 68
108 134 236 132 254 190 350 260 430 113 127 250 153 292 55 22 -53 12 -219
-20 -336 l-24 -87 28 22 c15 13 65 56 110 96 116 100 193 134 227 100 18 -18
15 -41 -24 -156 -30 -87 -35 -115 -32 -165 6 -75 23 -91 90 -83 123 14 308
155 539 414 49 55 71 72 91 72 40 0 46 -33 14 -78 -36 -53 -204 -234 -268
-290 -113 -99 -225 -167 -316 -191 -63 -18 -171 -15 -220 4 -79 32 -110 118
-79 217 l15 48 -61 -43 c-33 -23 -106 -85 -161 -137 -138 -131 -151 -140 -200
-140 -82 0 -85 33 -15 150 116 195 203 413 197 493 -4 61 -27 60 -93 -5 -71
-69 -161 -216 -288 -467 -112 -223 -155 -281 -208 -281 -46 0 -69 17 -91 68
-34 76 -35 247 -1 414 6 28 4 28 -68 -27 -88 -67 -268 -157 -358 -180 -101
-26 -217 -30 -282 -12 -173 51 -258 283 -176 480 29 69 132 102 177 57 25 -25
25 -23 -2 -123 -43 -163 -26 -276 50 -320 94 -55 315 14 531 168 118 84 184
157 221 247 65 159 178 229 240 151z m-4576 -515 c26 -36 20 -107 -14 -174
-36 -71 -101 -149 -142 -170 -27 -14 -32 -14 -45 -1 -26 26 -7 73 42 108 l44
32 -32 21 c-56 38 -47 107 24 171 48 43 99 48 123 13z"/>
<path d="M10132 4511 c-119 -122 -273 -415 -406 -773 -14 -38 -24 -68 -22 -68
2 0 49 69 103 153 220 336 381 643 371 708 -3 23 -5 22 -46 -20z"/>
<path d="M7569 3491 c-45 -52 -73 -101 -59 -101 42 0 123 78 118 113 -5 34
-24 30 -59 -12z"/>
</g>
</svg>
